<?xml version="1.0" encoding="UTF-8" standalone="no"?>
<!DOCTYPE svg PUBLIC "-//W3C//DTD SVG 1.1//EN" "http://www.w3.org/Graphics/SVG/1.1/DTD/svg11.dtd">
<svg version="1.1" xmlns="http://www.w3.org/2000/svg" xmlns:xlink="http://www.w3.org/1999/xlink" preserveAspectRatio="xMidYMid meet" viewBox="0 0 640 640" width="640" height="640"><defs><path d="M331.2 66.51L336.55 67.02L341.96 67.72L347.4 68.61L352.88 69.68L358.38 70.94L363.89 72.37L369.41 73.98L374.92 75.75L380.42 77.69L385.9 79.79L391.35 82.05L396.75 84.45L402.1 87L407.4 89.7L412.63 92.53L417.77 95.5L422.84 98.59L427.8 101.81L432.67 105.15L437.42 108.61L442.04 112.18L446.53 115.86L450.89 119.64L455.09 123.51L459.13 127.49L463.01 131.55L466.7 135.7L470.21 139.93L473.53 144.24L476.64 148.62L479.53 153.07L482.21 157.58L484.65 162.16L486.85 166.79L488.8 171.47L490.49 176.19L491.91 180.96L493.05 185.77L498.39 186.41L503.67 187.25L508.88 188.27L514.02 189.48L519.09 190.87L524.08 192.44L528.99 194.18L533.82 196.08L538.55 198.16L543.2 200.39L547.75 202.79L552.2 205.34L556.55 208.04L560.79 210.88L564.92 213.87L568.93 217L572.83 220.27L576.61 223.66L580.26 227.19L583.79 230.84L587.18 234.61L590.44 238.49L593.56 242.49L596.53 246.6L599.36 250.82L602.04 255.13L604.56 259.55L606.93 264.06L609.14 268.66L611.18 273.34L613.05 278.11L614.75 282.96L616.28 287.88L617.62 292.88L618.78 297.94L619.76 303.07L620.54 308.26L621.14 313.51L621.53 318.81L621.72 324.15L621.61 329.95L621.26 335.69L620.68 341.37L619.88 346.98L618.86 352.51L617.62 357.97L616.18 363.34L614.53 368.63L612.68 373.83L610.63 378.93L608.39 383.93L605.96 388.83L603.35 393.62L600.56 398.29L597.59 402.85L594.45 407.28L591.15 411.59L587.69 415.76L584.07 419.8L580.3 423.69L576.38 427.44L572.32 431.04L568.11 434.49L563.78 437.77L559.31 440.9L554.72 443.85L550 446.63L545.17 449.23L540.23 451.65L535.18 453.89L530.02 455.93L524.77 457.78L519.42 459.43L513.98 460.87L508.45 462.1L502.85 463.12L497.16 463.92L491.41 464.5L485.59 464.85L479.7 464.97L478.97 464.96L478.24 464.96L477.51 464.95L476.79 464.93L476.06 464.91L475.33 464.89L474.61 464.86L473.88 464.83L473.16 464.8L472.43 464.76L471.71 464.72L470.99 464.67L470.27 464.62L469.55 464.57L468.84 464.52L468.12 464.46L467.41 464.4L466.7 464.34L465.99 464.27L465.28 464.21L464.58 464.14L463.88 464.07L463.18 463.99L462.48 463.92L461.79 463.84L461.09 463.76L460.41 463.68L459.72 463.6L459.04 463.51L458.36 463.43L457.68 463.34L457.01 463.26L456.34 463.17L455.68 463.08L455.02 462.99L454.36 462.9L453.71 462.81L453.06 462.72L452.42 462.63L451.78 462.54L451.23 467.43L450.5 472.27L449.59 477.05L448.5 481.76L447.24 486.42L445.81 491L444.21 495.52L442.46 499.96L440.54 504.31L438.46 508.59L436.24 512.78L433.86 516.88L431.34 520.88L428.68 524.79L425.87 528.6L422.94 532.3L419.87 535.9L416.67 539.38L413.34 542.75L409.9 545.99L406.34 549.12L402.66 552.12L398.87 554.98L394.97 557.72L390.97 560.31L386.86 562.77L382.66 565.08L378.36 567.24L373.97 569.25L369.5 571.11L364.94 572.8L360.3 574.33L355.58 575.7L350.79 576.89L345.93 577.91L341 578.76L336.01 579.42L330.95 579.9L325.84 580.19L320.68 580.29L317.5 580.25L314.35 580.15L311.22 579.98L308.12 579.75L305.04 579.44L301.99 579.08L298.96 578.65L295.96 578.15L292.99 577.59L290.05 576.97L287.13 576.28L284.24 575.53L281.39 574.72L278.56 573.85L275.76 572.92L273 571.93L270.26 570.88L267.56 569.78L264.89 568.61L262.26 567.39L259.66 566.11L257.09 564.77L254.56 563.38L252.07 561.93L249.61 560.43L247.19 558.87L244.81 557.26L242.46 555.6L240.15 553.89L237.89 552.12L235.66 550.3L233.47 548.43L231.33 546.51L229.22 544.55L227.16 542.53L225.14 540.46L223.16 538.35L221.23 536.19L219.34 533.98L217.5 531.73L217.36 531.98L217.33 531.78L18.28 405.4L18.28 217.51L215.35 93.15L215.4 93.24L216.72 92.29L217.48 91.81L217.46 91.76L219.22 90.58L221.25 89.3L223.36 88.06L225.55 86.85L227.81 85.67L230.13 84.53L232.52 83.43L234.98 82.36L237.48 81.32L240.04 80.32L242.65 79.35L245.31 78.42L248 77.52L250.74 76.65L253.51 75.82L256.31 75.03L259.13 74.26L261.98 73.54L264.85 72.84L267.74 72.19L270.64 71.56L273.54 70.97L276.45 70.41L279.37 69.89L282.28 69.4L285.18 68.95L288.07 68.52L290.95 68.14L293.82 67.78L296.66 67.46L299.47 67.18L302.26 66.93L305.02 66.71L307.74 66.52L310.42 66.37L313.06 66.26L315.65 66.17L318.19 66.12L320.68 66.1L325.9 66.21L331.2 66.51ZM28.98 397.1L218.01 518.36L401.82 397.1L401.82 228.35L327.47 153.87L145.59 274.41L215.6 348.02L34.44 228.35L125.38 262.86L307.27 140.16L218.01 104.79L28.98 223.88L28.98 397.1Z" id="a1vxJ1JMEe"></path><path d="" id="e3UIy9bTtj"></path></defs><g><g><g><use xlink:href="#a1vxJ1JMEe" opacity="1" fill="#106ea7" fill-opacity="1"></use><g><use xlink:href="#a1vxJ1JMEe" opacity="1" fill-opacity="0" stroke="#000000" stroke-width="1" stroke-opacity="0"></use></g></g><g><g><use xlink:href="#e3UIy9bTtj" opacity="1" fill-opacity="0" stroke="#000000" stroke-width="1" stroke-opacity="1"></use></g></g></g></g></svg>